<!DOCTYPE svg PUBLIC "-//W3C//DTD SVG 1.1//EN" "http://www.w3.org/Graphics/SVG/1.1/DTD/svg11.dtd">
<!-- Uploaded to: SVG Repo, www.svgrepo.com, Transformed by: SVG Repo Mixer Tools -->
<svg fill="#ffffff" height="800px" width="800px" version="1.1" id="Layer_1" xmlns="http://www.w3.org/2000/svg" xmlns:xlink="http://www.w3.org/1999/xlink" viewBox="0 0 511.999 511.999" xml:space="preserve">
<g id="SVGRepo_bgCarrier" stroke-width="0"/>
<g id="SVGRepo_tracerCarrier" stroke-linecap="round" stroke-linejoin="round"/>
<g id="SVGRepo_iconCarrier"> <g> <g> <path d="M495.301,14.16H391.564c-9.222,0-16.699,7.477-16.699,16.699v27.328l-32.695-27.43 c-9.006-7.557-20.442-11.718-32.199-11.718H153.473c-11.758,0-23.194,4.162-32.201,11.719l-102.57,86.06 c-21.47,18.015-24.974,50.27-7.811,71.902c18.078,22.785,51.248,26.095,73.455,7.46l79.115-66.383h37.109 c-18.518,7.578-31.898,25.423-32.467,46.179c-0.797,29.074,22.487,52.93,51.476,52.93h155.285v15.706 c0,9.222,7.477,16.699,16.699,16.699H495.3c9.222,0,16.699-7.477,16.699-16.699V30.858C512,21.635,504.523,14.16,495.301,14.16z M374.868,195.508H219.581v0.001c-10.134,0-18.373-8.325-18.092-18.618c0.266-9.693,8.706-17.578,18.815-17.578 c7.262,0,59.115,0,65.689,0c9.222,0,16.699-7.477,16.699-16.699c0-9.222-7.477-16.699-16.699-16.699h-29.59l-25.868-21.703 c-6.005-5.038-13.629-7.813-21.467-7.813h-45.607c-7.838,0-15.462,2.774-21.468,7.814l-79.115,66.383 c-7.745,6.497-19.411,5.448-25.824-2.634c-6.027-7.596-4.629-19.062,3.115-25.559L142.74,56.341 c3.002-2.519,6.814-3.906,10.734-3.906h156.499c3.919,0,7.73,1.387,10.733,3.906l54.161,45.44V195.508z M478.602,227.914h-70.339 c0-7.002,0-171.742,0-180.358h70.339V227.914z"/> </g> </g> <g> <g> <path d="M308.487,273.754c-23.996,0-41.49,10.567-52.537,20.341c-11.047-9.774-28.541-20.341-52.537-20.341 c-40.555,0-69.236,36.769-69.236,80.261c0,63.02,57.582,111.628,113.877,141.839c4.932,2.646,10.861,2.646,15.793,0 c99.082-53.17,113.876-111.689,113.876-141.839C377.723,310.59,349.095,273.754,308.487,273.754z M255.951,462.067 c-40.552-23.027-88.375-61.7-88.375-108.053c0-23.036,13.406-46.864,35.838-46.864c24.283,0,37.353,19.194,38.358,20.728 c6.479,10.84,21.879,10.838,28.357,0c1.005-1.534,14.075-20.728,38.358-20.728c22.432,0,35.838,23.827,35.838,46.864 C344.325,400.379,296.502,439.04,255.951,462.067z"/> </g> </g> </g>
</svg>