<!DOCTYPE svg PUBLIC "-//W3C//DTD SVG 1.1//EN" "http://www.w3.org/Graphics/SVG/1.1/DTD/svg11.dtd">
<!-- Uploaded to: SVG Repo, www.svgrepo.com, Transformed by: SVG Repo Mixer Tools -->
<svg fill="#ffffff" width="800px" height="800px" viewBox="0 0 24 24" xmlns="http://www.w3.org/2000/svg">
<g id="SVGRepo_bgCarrier" stroke-width="0"/>
<g id="SVGRepo_tracerCarrier" stroke-linecap="round" stroke-linejoin="round"/>
<g id="SVGRepo_iconCarrier">
<path d="M20.56,7.571l-8-5.4a1,1,0,0,0-1.12,0l-8,5.4A1,1,0,0,0,3,8.4V21a1,1,0,0,0,1,1H20a1,1,0,0,0,1-1V8.4A1,1,0,0,0,20.56,7.571ZM19,20H5V8.932l7-4.726,7,4.726ZM13,10v2h2v2H13v2H11V14H9V12h2V10Z"/>
</g>
</svg>