<?xml version="1.0" encoding="UTF-8"?>
<svg version="1.1" xmlns="http://www.w3.org/2000/svg" width="408" height="412">
<path d="M0 0 C1.31022125 -0.00855011 1.31022125 -0.00855011 2.64691162 -0.01727295 C4.49246023 -0.02667456 6.33802526 -0.03323755 8.18359375 -0.03710938 C10.93521682 -0.0467036 13.6860552 -0.07772646 16.4375 -0.109375 C35.48876137 -0.22363746 53.51306826 2.70227843 71.734375 8.203125 C72.43062988 8.41275879 73.12688477 8.62239258 73.84423828 8.83837891 C104.83736079 18.4263918 131.43025148 35.98766126 154.734375 58.203125 C155.82685547 59.23373047 155.82685547 59.23373047 156.94140625 60.28515625 C193.417798 95.61041926 213.1586902 147.39551361 214.01977539 197.63330078 C214.38977713 248.93354203 197.4419502 297.97375172 162.734375 336.203125 C161.78581708 337.27156646 160.83791141 338.3405873 159.890625 339.41015625 C154.83064969 345.07816009 149.64985259 350.41733931 143.734375 355.203125 C142.2803125 356.41355469 142.2803125 356.41355469 140.796875 357.6484375 C113.15482496 380.31064187 79.98149479 395.30718473 44.734375 401.203125 C42.83945312 401.53957031 42.83945312 401.53957031 40.90625 401.8828125 C-12.65321491 409.79747027 -66.87850995 394.97493687 -110.265625 363.203125 C-114.79089718 359.74196935 -119.04911951 356.03119407 -123.265625 352.203125 C-124.33406646 351.25456708 -125.4030873 350.30666141 -126.47265625 349.359375 C-132.14066009 344.29939969 -137.47983931 339.11860259 -142.265625 333.203125 C-143.47605469 331.7490625 -143.47605469 331.7490625 -144.7109375 330.265625 C-167.6309961 302.30905924 -182.5916445 268.88581436 -188.265625 233.203125 C-188.38131836 232.52894531 -188.49701172 231.85476562 -188.61621094 231.16015625 C-197.13807675 180.48413522 -183.23517809 126.66478143 -153.984375 84.89453125 C-141.21544494 67.47604514 -126.65016942 52.02391915 -109.265625 39.203125 C-108.20472656 38.42066406 -107.14382812 37.63820312 -106.05078125 36.83203125 C-97.81199103 30.95591016 -89.21414274 25.91220012 -80.265625 21.203125 C-79.61674316 20.85894531 -78.96786133 20.51476562 -78.29931641 20.16015625 C-54.60642541 7.78318442 -26.80460435 0.13983167 0 0 Z " fill="#CEE8DF" transform="translate(193.265625,-0.203125)"/>
<path d="M0 0 C3.63371105 0.57536424 6.32527672 1.5336663 9.5 3.37890625 C10.37172852 3.8795459 11.24345703 4.38018555 12.14160156 4.89599609 C13.08487305 5.44594238 14.02814453 5.99588867 15 6.5625 C17.07727801 7.75538241 19.15544527 8.94671727 21.234375 10.13671875 C22.33458984 10.76755371 23.43480469 11.39838867 24.56835938 12.04833984 C30.43013109 15.38207654 36.34052229 18.6269283 42.25 21.875 C44.72160207 23.23522699 47.19285053 24.59609571 49.6640625 25.95703125 C50.27619598 26.2940506 50.88832947 26.63106995 51.51901245 26.978302 C61.2421517 32.33362668 70.93891742 37.7365589 80.63964844 43.13232422 C84.05276177 45.02932487 87.46754978 46.9232783 90.8828125 48.81640625 C102.3288553 55.16322561 113.75460509 61.54173176 125.13525391 68.00512695 C130.54402584 71.06941041 135.97228451 74.095064 141.421875 77.0859375 C142.06069611 77.43682938 142.69951721 77.78772125 143.35769653 78.14924622 C146.47470107 79.86061646 149.59373426 81.56810139 152.71630859 83.26928711 C158.5679493 86.47598622 164.37172244 89.74744517 170.08203125 93.19921875 C171.11046143 93.82014404 172.1388916 94.44106934 173.19848633 95.08081055 C180.56770538 100.12912697 186.31279674 107.51338746 188.578125 116.22265625 C190.53216497 129.08675274 189.44928861 140.022976 181.8125 150.75 C178.11338601 155.21254815 174.06907365 158.23428652 169 161 C167.91138672 161.62068359 167.91138672 161.62068359 166.80078125 162.25390625 C161.44058941 164.86574845 156.37359749 165.40330996 150.5 165.5 C149.81228516 165.51853027 149.12457031 165.53706055 148.41601562 165.55615234 C138.47246929 165.43666109 130.0521651 160.12040338 121.6875 155.25 C119.67663012 154.09617558 117.66486558 152.94390938 115.65234375 151.79296875 C114.05302002 150.87717041 114.05302002 150.87717041 112.42138672 149.94287109 C106.22884251 146.42636854 99.98869693 142.99623957 93.75 139.5625 C92.53733934 138.89423146 91.32469254 138.22593775 90.11206055 137.55761719 C87.82240982 136.29684903 85.53136822 135.03860267 83.23876953 133.78320312 C81.10253374 132.6070335 78.973073 131.41846218 76.85107422 130.21679688 C75.88186035 129.67216797 74.91264648 129.12753906 73.9140625 128.56640625 C73.0679541 128.08502197 72.2218457 127.6036377 71.35009766 127.10766602 C67.5373182 125.31059762 65.15590282 125.28346503 61 126 C58.1899654 127.79363911 56.49059532 129.01880935 55 132 C54.63405334 137.58068662 54.68192831 140.3332443 58 145 C60.5947833 146.88867716 60.5947833 146.88867716 63.6875 148.4609375 C64.84789795 149.08983887 66.0082959 149.71874023 67.20385742 150.36669922 C68.46918525 151.03623305 69.73456748 151.70566406 71 152.375 C72.30585619 153.07817698 73.61094085 153.78278845 74.9152832 154.48876953 C77.60836886 155.94538996 80.30438838 157.39635329 83.00244141 158.84375 C89.09999088 162.12298055 95.14114908 165.50253853 101.1875 168.875 C102.86211304 169.80348755 102.86211304 169.80348755 104.57055664 170.75073242 C109.48693231 173.47661839 114.39336331 176.2154529 119.265625 179.01953125 C133.21473316 187.02209371 145.42691796 192.51944791 161.98828125 189.4453125 C178.62823221 184.61213172 194.27991579 173.08270757 208.88671875 163.9453125 C218.34239608 158.08056896 227.20930372 153.01955563 238 150 C238.62406738 149.82404297 239.24813477 149.64808594 239.89111328 149.46679688 C265.89738784 143.71037213 288.75408672 158.11169236 310 171 C287.95106442 208.55091759 248.25874146 235.85688616 206.5625 247.125 C158.20462993 258.80866313 109.69308878 251.20365742 67 226 C30.95739221 203.39008212 5.53759541 169.014592 -8 129 C-8.40089844 127.87078125 -8.80179688 126.7415625 -9.21484375 125.578125 C-23.14804562 84.14656623 -16.27069233 39.4251391 0 0 Z " fill="#124649" transform="translate(43,126)"/>
<path d="M0 0 C0.88107422 0.14002441 1.76214844 0.28004883 2.66992188 0.42431641 C36.52073318 6.01771573 68.05463766 21.43030103 93 45 C94.35008458 46.15064027 95.70411589 47.2966696 97.0625 48.4375 C127.08092666 74.79367861 146.49087011 117.5372025 149.81396484 156.90673828 C151.00515992 176.71309211 150.47247196 196.2214843 145.9375 215.5625 C145.78648834 216.21253998 145.63547668 216.86257996 145.47988892 217.53231812 C142.82944775 228.82713651 139.45911492 239.72180432 134 250 C133.34 250.33 132.68 250.66 132 251 C129.90307617 250.1105957 129.90307617 250.1105957 127.29296875 248.67578125 C126.32528564 248.14815186 125.35760254 247.62052246 124.3605957 247.0769043 C123.31347412 246.49465088 122.26635254 245.91239746 121.1875 245.3125 C120.10235107 244.71671143 119.01720215 244.12092285 117.89916992 243.50708008 C110.31265451 239.3264388 102.78275799 235.0499322 95.27661133 230.72705078 C87.85594324 226.46201334 80.37353872 222.31335398 72.875 218.1875 C71.95338577 217.68035461 71.95338577 217.68035461 71.01315308 217.16296387 C68.51971739 215.7910138 66.02623796 214.41914337 63.53260803 213.04754639 C53.79053273 207.68673828 44.0778866 202.27278788 34.36035156 196.86767578 C30.94723823 194.97067513 27.53245022 193.0767217 24.1171875 191.18359375 C12.41595941 184.69535695 0.72528604 178.19074299 -10.90209961 171.57080078 C-15.2675268 169.08891401 -19.64289318 166.64039938 -24.078125 164.28515625 C-35.38562667 158.25731061 -46.23022721 152.00863279 -52 140 C-52.31710938 139.360625 -52.63421875 138.72125 -52.9609375 138.0625 C-56.4520828 129.60688202 -56.54696347 118.14033027 -53.4375 109.5625 C-48.47060863 99.24797994 -40.60306096 91.53241786 -30 87.0625 C-18.81220366 83.98437614 -7.59481816 84.65397501 2.54833984 90.24829102 C3.92896171 91.04088265 5.30437862 91.84258908 6.67529297 92.65185547 C9.2850973 94.16533368 11.93373197 95.58789804 14.59765625 97.00390625 C24.59402284 102.32210631 34.49006029 107.80491563 44.3125 113.4375 C45.18237549 113.93507813 46.05225098 114.43265625 46.94848633 114.9453125 C50.48070862 116.96862097 54.00692464 118.99834828 57.50390625 121.08203125 C62.46626509 123.96492543 66.08230883 126.06518441 72 125 C75.81560144 123.30417714 77.47426951 121.84900193 79 118 C79.21322458 115.8031383 79.21322458 115.8031383 78.9375 113.5625 C78.85822266 112.45068359 78.85822266 112.45068359 78.77734375 111.31640625 C76.26539528 103.83105228 67.59067368 100.85518071 61.125 97.5 C58.76324747 96.25197152 56.40250111 95.00220418 54.04296875 93.75 C53.15004875 93.2776593 53.15004875 93.2776593 52.23908997 92.79577637 C46.58135931 89.7963416 41.0023625 86.66751837 35.4375 83.5 C34.51638428 82.97809082 33.59526855 82.45618164 32.64624023 81.91845703 C28.66884246 79.66288692 24.69577651 77.40028983 20.73242188 75.12011719 C17.38886485 73.19665227 14.0384985 71.28546344 10.6875 69.375 C9.667771 68.78267578 8.64804199 68.19035156 7.59741211 67.58007812 C-0.98725401 62.70408404 -8.93919315 59.58127449 -18.875 59.5 C-20.13054687 59.4690625 -21.38609375 59.438125 -22.6796875 59.40625 C-32.88054091 60.22524325 -42.17389726 66.62456075 -50.61572266 71.90100098 C-52.42223739 73.02950862 -54.2354183 74.14653029 -56.05078125 75.26074219 C-58.52093952 76.77715638 -60.9893287 78.29636846 -63.45605469 79.81835938 C-105.36708587 105.64781263 -105.36708587 105.64781263 -130.66015625 101.3828125 C-146.85423887 97.53437646 -160.89523465 88.51871966 -175 80 C-172.93944902 70.32828883 -162.61716219 60.96117368 -156 54 C-155.5040332 53.47148438 -155.00806641 52.94296875 -154.49707031 52.3984375 C-131.39294428 27.91057978 -101.33732938 10.33636062 -68.4375 2.875 C-67.29780762 2.61638184 -66.15811523 2.35776367 -64.98388672 2.09130859 C-43.46806771 -2.64853991 -21.78055682 -3.57183205 0 0 Z " fill="#058069" transform="translate(231,26)"/>
</svg>
